<svg width="105" height="48" viewBox="0 0 105 48" fill="none" xmlns="http://www.w3.org/2000/svg">
<path d="M25.872 3.736L25.104 9.784H16.896V37H9.024V9.784H0.432V3.736H25.872ZM43.8259 10.696C46.0339 10.696 47.7619 11.368 49.0099 12.712C50.2579 14.056 50.8819 15.944 50.8819 18.376V37H43.2979V19.672C43.2979 18.392 43.0899 17.512 42.6739 17.032C42.2579 16.52 41.6659 16.264 40.8979 16.264C39.3619 16.264 37.8899 17.352 36.4819 19.528V37H28.8979V1.384L36.4819 0.615999V14.248C37.5379 13.064 38.6579 12.184 39.8419 11.608C41.0259 11 42.3539 10.696 43.8259 10.696ZM76.857 29.608C76.857 30.568 76.985 31.272 77.241 31.72C77.529 32.168 77.977 32.504 78.585 32.728L77.001 37.672C75.433 37.544 74.153 37.208 73.161 36.664C72.169 36.088 71.401 35.192 70.857 33.976C69.193 36.536 66.633 37.816 63.177 37.816C60.649 37.816 58.633 37.08 57.129 35.608C55.625 34.136 54.873 32.216 54.873 29.848C54.873 27.064 55.897 24.936 57.945 23.464C59.993 21.992 62.953 21.256 66.825 21.256H69.417V20.152C69.417 18.648 69.097 17.624 68.457 17.08C67.817 16.504 66.697 16.216 65.097 16.216C64.265 16.216 63.257 16.344 62.073 16.6C60.889 16.824 59.673 17.144 58.425 17.56L56.697 12.568C58.297 11.96 59.929 11.496 61.593 11.176C63.289 10.856 64.857 10.696 66.297 10.696C69.945 10.696 72.617 11.448 74.313 12.952C76.009 14.456 76.857 16.712 76.857 19.72V29.608ZM65.385 32.392C67.113 32.392 68.457 31.576 69.417 29.944V25.432H67.545C65.817 25.432 64.521 25.736 63.657 26.344C62.825 26.952 62.409 27.896 62.409 29.176C62.409 30.2 62.665 31 63.177 31.576C63.721 32.12 64.457 32.392 65.385 32.392ZM96.2588 37.048C95.2348 40.344 93.5548 42.872 91.2188 44.632C88.9148 46.424 85.8108 47.432 81.9068 47.656L81.0908 42.328C83.5228 42.008 85.3148 41.464 86.4668 40.696C87.6508 39.928 88.5948 38.696 89.2988 37H86.7068L78.9307 11.512H86.9948L91.5547 32.152L96.5468 11.512H104.371L96.2588 37.048Z" fill="black"/>
</svg>
